<?xml version="1.0" encoding="utf-8"?>
<!-- Generator: Adobe Illustrator 25.4.1, SVG Export Plug-In . SVG Version: 6.00 Build 0)  -->
<svg version="1.0" id="katman_1" xmlns="http://www.w3.org/2000/svg" xmlns:xlink="http://www.w3.org/1999/xlink" x="0px" y="0px"
	 viewBox="0 0 1700 1200" style="enable-background:new 0 0 1700 1200;" xml:space="preserve">
<style type="text/css">
	.st0{fill:#212121;}
	.st1{clip-path:url(#SVGID_00000002372912008565487760000007913658064056859807_);}
	.st2{fill:#FFFFFF;}
	.st3{fill:#8247E5;}
	.st4{fill:#CFD4DD;}
</style>
<path class="st0" d="M215.2,468.1h1269.7c33.2,0,60.2,26.9,60.2,60.2v144.4c0,33.2-26.9,60.2-60.2,60.2H215.2
	c-33.2,0-60.2-26.9-60.2-60.2V528.3C155,495.1,181.9,468.1,215.2,468.1z"/>
<g>
	<defs>
		<rect id="SVGID_1_" x="797.5" y="528.3" width="652.3" height="143.5"/>
	</defs>
	<clipPath id="SVGID_00000103253941680660637590000002995348833599222162_">
		<use xlink:href="#SVGID_1_"  style="overflow:visible;"/>
	</clipPath>
	<g style="clip-path:url(#SVGID_00000103253941680660637590000002995348833599222162_);">
		<path class="st2" d="M1052.7,574c4,2.4,7.4,5.8,9.5,10.3c2.5,4.5,3.7,10,3.7,16s-1.2,11.2-4,15.7c-2.5,4.5-6.2,7.9-10.8,10
			c-4.6,2.4-10.2,3.6-16,3.6c-3.4,0-6.5-0.6-9.5-1.8c-3.1-0.9-5.8-2.7-8-4.8v31.5h-17.9v-83h15.4l1.5,6.7c6.8-5.4,14.2-8.2,21.9-8.2
			C1043.8,570.1,1048.7,571.3,1052.7,574z M1042.8,611.6c3.1-2.7,4.6-6.4,4.6-10.9s-1.5-8.2-4.3-11.2c-2.8-3-6.5-4.2-10.5-4.2
			c-3.4,0-6.5,0.6-8.9,2.1c-2.5,1.2-4.3,3.3-5.8,6.1V607c0.9,2.7,2.8,4.8,4.9,6.4c2.5,1.5,5.2,2.4,8.6,2.4
			C1036.1,615.8,1039.8,614.3,1042.8,611.6z"/>
		<path class="st2" d="M1076.4,584.6c2.8-4.2,6.5-7.9,11.4-10.3c4.9-2.4,10.5-3.9,16.6-3.9s11.7,1.2,16.6,3.9
			c4.6,2.4,8.3,6.1,11.1,10.6c2.8,4.5,4,9.4,4,15.1s-1.2,10.6-4,15.1c-2.8,4.5-6.2,8.2-11.1,10.6c-4.6,2.4-10.5,3.9-16.6,3.9
			s-11.7-1.2-16.6-3.6c-4.9-2.4-8.6-5.8-11.4-10.3c-2.5-4.5-4-9.7-4-15.7C1072.4,594.3,1073.9,589.1,1076.4,584.6z M1094.6,610.9
			c2.5,3,5.8,4.2,9.9,4.2c4,0,7.4-1.5,9.9-4.2c2.5-2.7,3.7-6.7,3.7-10.9c0-4.5-1.2-8.2-3.7-10.9c-2.8-3-5.8-4.5-10.2-4.5
			c-4,0-7.1,1.5-9.9,4.2c-2.5,3-3.7,6.7-3.7,11.2C1090.6,604.3,1091.8,607.9,1094.6,610.9z"/>
		<path class="st2" d="M1165,528.6v99.6h-17.9v-99.6H1165z"/>
		<path class="st2" d="M1238.3,573.1l-36.3,81.7h-17.2l13.5-29.4l-25.9-52.4h20.3l14.8,32.7l14.8-32.7H1238.3z"/>
		<path class="st2" d="M1306.7,573.1v55.1c0,5.1-1.5,10-4.6,14.2c-3.1,4.2-7.1,7.6-12.3,10c-5.2,2.4-10.8,3.6-16.9,3.6
			c-4.6,0-8.6-0.6-12-1.5c-3.4-1.2-6.2-2.4-8.3-3.6c-2.5-1.5-4.9-3.3-7.7-5.8l10.5-12.1c2.5,2.4,5.2,4.2,7.7,5.4
			c2.5,1.2,5.8,2.1,9.5,2.1c4.6,0,8.3-1.2,11.4-3.3c3.1-2.1,4.6-5.4,4.6-9.4V620c-1.8,2.7-4.3,5.1-8,7c-3.7,1.8-8,2.7-12.9,2.7
			c-4.9,0-9.9-1.2-14.2-3.9c-4.3-2.4-7.7-6.1-10.5-10.6c-2.5-4.5-4-9.4-4-14.8s1.2-10.6,4-15.1c2.8-4.5,6.2-8.2,10.8-10.9
			c4.3-2.7,8.9-3.9,13.9-3.9c4.6,0,8.6,0.6,12.3,1.8c3.7,1.2,6.5,3,8.3,5.1l1.8-4.2H1306.7z M1288.5,607v-13.6
			c-1.2-2.7-3.1-4.8-5.8-6.4c-2.8-1.5-5.8-2.4-9.5-2.4c-4.3,0-8,1.5-11.1,4.2c-3.1,2.7-4.6,6.4-4.6,10.9c0,4.2,1.5,8.2,4.6,11.2
			c3.1,3,6.8,4.5,11.1,4.5C1280.2,615.2,1285.4,612.5,1288.5,607z"/>
		<path class="st2" d="M1321.4,584.6c2.8-4.5,6.5-7.9,11.4-10.6c4.9-2.4,10.5-3.9,16.6-3.9c6.2,0,11.7,1.2,16.6,3.9
			c4.6,2.4,8.3,6.1,11.1,10.6c2.5,4.5,4,9.4,4,15.1c0,5.8-1.2,10.6-4,15.1c-2.5,4.5-6.2,8.2-11.1,10.6c-4.6,2.4-10.5,3.9-16.6,3.9
			c-6.2,0-11.7-1.2-16.6-3.6c-4.9-2.4-8.6-5.8-11.4-10.3c-2.8-4.5-4-9.7-4-16C1317.4,594.3,1318.7,589.1,1321.4,584.6z
			 M1339.3,610.9c2.5,3,5.8,4.2,9.9,4.2c4,0,7.4-1.5,9.9-4.2c2.5-2.7,3.7-6.7,3.7-10.9c0-4.5-1.2-8.2-3.7-10.9
			c-2.5-2.7-5.8-4.2-9.9-4.2c-4,0-7.1,1.5-9.9,4.2c-2.8,2.7-4,6.7-4,10.9C1335.6,604.3,1336.8,607.9,1339.3,610.9z"/>
		<path class="st2" d="M1444.3,574.9c3.7,3,5.2,7,5.5,11.8v41.5h-18.2v-34.8c-0.3-5.4-3.1-8.2-8.3-8.2c-4,0-7.4,1.8-9.9,5.8
			c-2.5,3.9-3.7,8.8-3.7,14.5v22.7h-17.9v-55.1h16.3l1.2,8.8c2.2-3.6,4.9-6.4,8.6-8.5c3.7-2.1,8-3,12.9-3
			C1436.3,570.4,1440.9,571.9,1444.3,574.9z"/>
		<path class="st3" d="M923.4,572.2c-3.1-1.8-7.1-1.8-10.5,0l-24,13.9l-16.3,9.1l-24,13.9c-3.1,1.8-7.1,1.8-10.5,0L819,598.2
			c-3.1-1.8-5.2-5.1-5.2-8.8V568c0-3.6,1.8-7,5.2-8.8l18.8-10.6c3.1-1.8,7.1-1.8,10.5,0l18.8,10.6c3.1,1.8,5.2,5.1,5.2,8.8v13.9
			l16.3-9.4v-13.9c0-3.6-1.8-7-5.2-8.8l-34.8-20c-3.1-1.8-7.1-1.8-10.5,0l-35.4,20c-3.4,1.8-5.2,5.1-5.2,8.8v40.3
			c0,3.6,1.8,7,5.2,8.8l35.4,20c3.1,1.8,7.1,1.8,10.5,0l24-13.6l16.3-9.4l24-13.6c3.1-1.8,7.1-1.8,10.5,0l18.8,10.6
			c3.1,1.8,5.2,5.1,5.2,8.8v21.5c0,3.6-1.8,7-5.2,8.8l-18.8,10.9c-3.1,1.8-7.1,1.8-10.5,0l-18.8-10.6c-3.1-1.8-5.2-5.1-5.2-8.8
			v-13.9l-16.3,9.4v13.9c0,3.6,1.8,7,5.2,8.8l35.4,20c3.1,1.8,7.1,1.8,10.5,0l35.4-20c3.1-1.8,5.2-5.1,5.2-8.8v-40.3
			c0-3.6-1.8-7-5.2-8.8L923.4,572.2z"/>
	</g>
</g>
<path class="st4" d="M250.3,630.6h8.7v-18.2h12.8c0.5,0,1.1,0,1.9-0.1c0.8,0,1.6-0.1,2.2-0.2c4.5-0.7,7.8-2.6,10-5.6
	c2.2-3.1,3.3-6.7,3.3-11c0-4.3-1.1-8-3.2-11c-2.1-3.1-5.5-4.9-10-5.6c-0.7-0.1-1.4-0.2-2.2-0.2c-0.8,0-1.4-0.1-1.9-0.1h-21.5V630.6z
	 M259,604.3v-17.5h12.4c0.5,0,1,0,1.6,0.1c0.6,0,1.2,0.1,1.7,0.3c1.4,0.4,2.6,1,3.4,1.9c0.8,0.9,1.4,1.9,1.8,3.1
	c0.4,1.2,0.5,2.3,0.5,3.4c0,1.1-0.2,2.2-0.5,3.4c-0.3,1.2-0.9,2.2-1.8,3.1c-0.8,0.9-1.9,1.6-3.4,1.9c-0.5,0.1-1.1,0.2-1.7,0.3
	c-0.6,0-1.1,0.1-1.6,0.1H259z M322,631.7c5.2,0,9.7-1.1,13.4-3.4c3.7-2.3,6.6-5.5,8.6-9.5c2-4.1,3-8.8,3-14.2c0-5.4-1-10.1-3-14.2
	c-2-4.1-4.8-7.2-8.6-9.5c-3.7-2.3-8.2-3.4-13.4-3.4c-5.2,0-9.6,1.1-13.4,3.4c-3.7,2.3-6.6,5.4-8.6,9.5c-2,4-3,8.8-3,14.2
	c0,5.4,1,10.1,3,14.2c2,4.1,4.8,7.2,8.6,9.5C312.4,630.5,316.9,631.7,322,631.7z M322,623.5c-5.2-0.1-9.1-1.8-11.8-5.2
	c-2.6-3.4-3.9-8-3.9-13.6c0-3.8,0.6-7.1,1.8-10c1.2-2.8,2.9-5,5.2-6.6c2.3-1.6,5.2-2.4,8.7-2.3c5.2,0.1,9.2,1.8,11.8,5.2
	c2.6,3.4,3.9,8,3.9,13.6c0,3.8-0.6,7.1-1.8,10c-1.2,2.8-2.9,5-5.2,6.6C328.4,622.7,325.5,623.5,322,623.5z M366.5,630.6h8.6l10.6-37
	l10.6,37h8.6l15.2-52H411l-10.3,37.5l-10.4-37.5l-9.1,0.1l-10.3,37.5l-10.4-37.5h-9.1L366.5,630.6z M429.6,630.6h33.6v-8.2h-24.9
	v-14.7h20.5v-8.2h-20.5v-12.8h24.9v-8.2h-33.6V630.6z M475.5,630.6h8.7v-18.2h12.3l8.8,18.2h9.9l-9.6-19.7c3-1.3,5.2-3.3,6.6-6
	c1.4-2.7,2.2-5.8,2.2-9.3c0-4.3-1.1-8-3.2-11c-2.1-3.1-5.5-4.9-10-5.6c-0.7-0.1-1.4-0.2-2.2-0.2c-0.8,0-1.4-0.1-1.9-0.1h-21.5V630.6
	z M484.2,604.3v-17.5h12.4c0.5,0,1,0,1.6,0.1c0.6,0,1.2,0.1,1.7,0.3c1.4,0.4,2.6,1,3.4,1.9c0.8,0.9,1.4,1.9,1.8,3.1
	c0.4,1.2,0.5,2.3,0.5,3.4c0,1.1-0.2,2.2-0.5,3.4c-0.3,1.2-0.9,2.2-1.8,3.1c-0.8,0.9-1.9,1.6-3.4,1.9c-0.5,0.1-1.1,0.2-1.7,0.3
	c-0.6,0-1.1,0.1-1.6,0.1H484.2z M526.7,630.6h33.6v-8.2h-24.9v-14.7H556v-8.2h-20.5v-12.8h24.9v-8.2h-33.6V630.6z M572.6,630.6h16.6
	c0.4,0,1.3,0,2.6,0c1.3,0,2.6-0.1,3.8-0.3c4.1-0.5,7.6-2,10.5-4.4c2.8-2.4,5-5.5,6.5-9.2c1.5-3.7,2.2-7.8,2.2-12.2
	c0-4.4-0.7-8.5-2.2-12.2c-1.5-3.7-3.6-6.8-6.5-9.2c-2.8-2.4-6.3-3.9-10.5-4.4c-1.2-0.1-2.5-0.2-3.8-0.3c-1.3,0-2.1,0-2.6,0h-16.6
	V630.6z M581.4,622.4v-35.6h7.7c0.7,0,1.6,0,2.7,0.1c1.1,0,2.1,0.1,3,0.3c2.4,0.5,4.4,1.5,5.9,3.2c1.5,1.7,2.7,3.8,3.4,6.2
	c0.8,2.5,1.2,5.1,1.2,7.9c0,2.7-0.4,5.3-1.1,7.8c-0.7,2.5-1.9,4.6-3.4,6.3c-1.5,1.7-3.5,2.8-6,3.3c-0.9,0.2-1.9,0.3-3,0.3
	c-1.1,0-2,0.1-2.7,0.1H581.4z M644.8,630.6h22.7c5.1,0,9-1.4,11.7-4.3c2.6-2.8,4-6.6,4-11.2c0-2.6-0.6-5-1.9-7.1
	c-1.3-2.1-3.2-3.7-5.7-4.8c1.6-1,2.9-2.3,3.8-4.1c0.9-1.8,1.4-3.9,1.4-6.2c0-2.3-0.6-4.6-1.7-6.8c-1.1-2.2-2.8-4-5-5.4
	c-2.2-1.4-5.1-2.1-8.6-2.1h-20.6V630.6z M653.6,599.4v-12.6h11.7c2.1,0,3.7,0.6,4.8,1.8c1.2,1.2,1.7,2.7,1.7,4.5
	c0,2.1-0.6,3.6-1.9,4.7c-1.3,1.1-2.8,1.6-4.7,1.6H653.6z M653.6,622.4v-14.9h13.1c2.4,0,4.3,0.7,5.7,2.1c1.3,1.4,2,3.2,2,5.3
	c0,2.3-0.8,4.1-2.3,5.5c-1.5,1.3-3.4,2-5.7,2H653.6z M704.4,630.6h8.8v-21.3l17.7-30.7h-10.1l-11.9,20.7l-12-20.7h-10.1l17.7,30.7
	V630.6z"/>
</svg>
